<svg xmlns="http://www.w3.org/2000/svg" xmlns:bx="https://boxy-svg.com" viewBox="65.58 118.85 400.47 415.15">
  <path style="fill: rgb(216, 216, 216); stroke: rgb(0, 0, 0);" d="M 66.078 336.309 L 451.277 338.358" transform="matrix(0.9999999999999999, 0, 0, 0.9999999999999999, -1.1368683772161603e-13, -5.684341886080802e-14)"/>
  <path style="fill: rgb(216, 216, 216); stroke: rgb(0, 0, 0); transform-origin: 259.646px 336.693px;" d="M 259.589 533.495 L 259.702 139.891" transform="matrix(-1, 0, 0, -1, -0.000053297044, 0.00001003424)"/>
  <path style="fill: rgb(216, 216, 216); stroke: rgb(0, 0, 0);" d="M 254.851 259.562 L 266.186 259.562" transform="matrix(0.9999999999999999, 0, 0, 0.9999999999999999, -1.1368683772161603e-13, -5.684341886080802e-14)"/>
  <path style="fill: rgb(216, 216, 216); stroke: rgb(0, 0, 0);" d="M 254.263 194.997 L 265.598 194.997" transform="matrix(0.9999999999999999, 0, 0, 0.9999999999999999, -1.1368683772161603e-13, -5.684341886080802e-14)"/>
  <path style="fill: rgb(216, 216, 216); stroke: rgb(0, 0, 0);" d="M 252.966 415.811 L 264.301 415.811" transform="matrix(0.9999999999999999, 0, 0, 0.9999999999999999, -1.1368683772161603e-13, -5.684341886080802e-14)"/>
  <path style="fill: rgb(216, 216, 216); stroke: rgb(0, 0, 0);" d="M 252.645 484.834 L 263.98 484.834" transform="matrix(0.9999999999999999, 0, 0, 0.9999999999999999, -1.1368683772161603e-13, -5.684341886080802e-14)"/>
  <path style="fill: rgb(216, 216, 216); stroke: rgb(0, 0, 0);" d="M 341.511 330.913 L 341.511 344.137" transform="matrix(0.9999999999999999, 0, 0, 0.9999999999999999, -1.1368683772161603e-13, -5.684341886080802e-14)"/>
  <path style="fill: rgb(216, 216, 216); stroke: rgb(0, 0, 0);" d="M 414.013 331.141 L 414.013 344.365" transform="matrix(0.9999999999999999, 0, 0, 0.9999999999999999, -1.1368683772161603e-13, -5.684341886080802e-14)"/>
  <path style="fill: rgb(216, 216, 216); stroke: rgb(0, 0, 0);" d="M 178.696 329.574 L 178.696 342.798" transform="matrix(0.9999999999999999, 0, 0, 0.9999999999999999, -1.1368683772161603e-13, -5.684341886080802e-14)"/>
  <path style="fill: rgb(216, 216, 216); stroke: rgb(0, 0, 0);" d="M 94.059 329.317 L 94.059 342.541" transform="matrix(0.9999999999999999, 0, 0, 0.9999999999999999, -1.1368683772161603e-13, -5.684341886080802e-14)"/>
  <path d="M 259.863 128.679 L 263.269 148.265 L 256.456 148.265 L 259.863 128.679 Z" style="stroke: rgb(0, 0, 0);" transform="matrix(0.9999999999999999, 0, 0, 0.9999999999999999, -1.1368683772161603e-13, -5.684341886080802e-14)" bx:shape="triangle 256.456 128.679 6.813 19.586 0.5 0 1@ed121aaf"/>
  <path d="M 304.458 122.96 L 307.864 142.546 L 301.051 142.546 L 304.458 122.96 Z" style="stroke: rgb(0, 0, 0); transform-origin: 304.458px 132.753px;" transform="matrix(0, 1, -1, 0, 151.299508281202, 205.492870834293)" bx:shape="triangle 301.051 122.96 6.813 19.586 0.5 0 1@61ece56e"/>
  <path style="fill: rgba(67, 133, 240, 0.37); stroke: rgba(0, 0, 0, 0.306);" d="M 260.067 337.269 L 341.383 337.553 L 259.783 194.809 L 260.067 337.269 Z" transform="matrix(0.9999999999999999, 0, 0, 0.9999999999999999, -1.1368683772161603e-13, -5.684341886080802e-14)"/>
  <rect x="93.301" y="336.948" width="166.882" height="149.22" style="fill: rgba(67, 133, 240, 0.37); stroke: rgba(0, 0, 0, 0.306);" transform="matrix(0.9999999999999999, 0, 0, 0.9999999999999999, -1.1368683772161603e-13, -5.684341886080802e-14)"/>
  <path style="fill: rgba(67, 133, 240, 0.37); stroke: rgba(0, 0, 0, 0.306);" d="M 260.309 337.21 L 259.627 259.796 C 214.113 240.996 161.402 280.835 179.143 337.21 L 260.309 337.21 Z" transform="matrix(0.9999999999999999, 0, 0, 0.9999999999999999, -1.1368683772161603e-13, -5.684341886080802e-14)"/>
  <text style="fill: rgb(51, 51, 51); font-family: Arial, sans-serif; font-size: 12px; white-space: pre;" transform="matrix(0.9999999999999999, 0, 0, 0.9999999999999999, -9.416084429861428, 13.182487684227283)"><tspan x="275.134" y="116.866">y</tspan><tspan x="275.134" dy="1em">​</tspan></text>
  <text style="fill: rgb(51, 51, 51); font-family: Arial, sans-serif; font-size: 14px; white-space: pre;" x="268.332" y="201.313" transform="matrix(0.9999999999999999, 0, 0, 0.9999999999999999, -1.1368683772161603e-13, -5.684341886080802e-14)">R</text>
  <text style="fill: rgb(51, 51, 51); font-family: Arial, sans-serif; font-size: 14px; white-space: pre;" x="266.764" y="264.811" transform="matrix(0.9999999999999999, 0, 0, 0.9999999999999999, -1.1368683772161603e-13, -5.684341886080802e-14)">R/2</text>
  <text style="fill: rgb(51, 51, 51); font-family: Arial, sans-serif; font-size: 14px; white-space: pre;" x="330.648" y="357.94" transform="matrix(0.9999999999999999, 0, 0, 0.9999999999999999, -1.1368683772161603e-13, -5.684341886080802e-14)">R/2</text>
  <text style="fill: rgb(51, 51, 51); font-family: Arial, sans-serif; font-size: 14px; white-space: pre;" x="409.741" y="355.882" transform="matrix(0.9999999999999999, 0, 0, 0.9999999999999999, -1.1368683772161603e-13, -5.684341886080802e-14)">R</text>
  <text style="fill: rgb(51, 51, 51); font-family: Arial, sans-serif; font-size: 14px; white-space: pre;" x="267.519" y="419.977" transform="matrix(0.9999999999999999, 0, 0, 0.9999999999999999, -1.1368683772161603e-13, -5.684341886080802e-14)">-R/2</text>
  <text style="fill: rgb(51, 51, 51); font-family: Arial, sans-serif; font-size: 14px; white-space: pre;" x="166.348" y="358.973" transform="matrix(0.9999999999999999, 0, 0, 0.9999999999999999, -1.1368683772161603e-13, -5.684341886080802e-14)">-R/2</text>
  <text style="fill: rgb(51, 51, 51); font-family: Arial, sans-serif; font-size: 14px; white-space: pre;" x="266.587" y="489.927" transform="matrix(0.9999999999999999, 0, 0, 0.9999999999999999, -1.1368683772161603e-13, -5.684341886080802e-14)">-R</text>
  <text style="fill: rgb(51, 51, 51); font-family: Arial, sans-serif; font-size: 14px; white-space: pre;" x="85.129" y="355.378" transform="matrix(0.9999999999999999, 0, 0, 0.9999999999999999, -1.1368683772161603e-13, -5.684341886080802e-14)">-R</text>
</svg>